<svg width="12" height="14" viewBox="0 0 12 14" fill="none" xmlns="http://www.w3.org/2000/svg">
<path d="M8.47059 12.6H1.41176V3.5C1.41176 3.115 1.09412 2.8 0.705882 2.8C0.317647 2.8 0 3.115 0 3.5V12.6C0 13.37 0.635294 14 1.41176 14H8.47059C8.85882 14 9.17647 13.685 9.17647 13.3C9.17647 12.915 8.85882 12.6 8.47059 12.6ZM12 9.8V1.4C12 0.63 11.3647 0 10.5882 0H4.23529C3.45882 0 2.82353 0.63 2.82353 1.4V9.8C2.82353 10.57 3.45882 11.2 4.23529 11.2H10.5882C11.3647 11.2 12 10.57 12 9.8ZM10.5882 9.8H4.23529V1.4H10.5882V9.8Z" fill="#B6B6B6"/>
</svg>
