<svg width="15" height="16" viewBox="0 0 15 16" fill="none" xmlns="http://www.w3.org/2000/svg">
<path d="M10.6398 10.975C10.5297 10.8583 10.4746 10.7157 10.4746 10.5472C10.4746 10.3787 10.5297 10.2426 10.6398 10.1389L12.1088 8.58333H6.23305C6.07392 8.58333 5.94233 8.52824 5.83828 8.41806C5.73423 8.30787 5.6822 8.16852 5.6822 8C5.6822 7.83148 5.73423 7.69213 5.83828 7.58194C5.94233 7.47176 6.07392 7.41667 6.23305 7.41667H12.072L10.5847 5.84167C10.4868 5.73796 10.4379 5.60509 10.4379 5.44306C10.4379 5.28102 10.4929 5.14167 10.6031 5.025C10.7133 4.90833 10.8449 4.85 10.9979 4.85C11.1509 4.85 11.2825 4.90833 11.3927 5.025L13.8347 7.61111C13.896 7.67593 13.9388 7.74074 13.9633 7.80556C13.9878 7.87037 14 7.94167 14 8.01944C14 8.09722 13.9878 8.16852 13.9633 8.23333C13.9388 8.29815 13.896 8.36296 13.8347 8.42778L11.411 10.9944C11.3131 11.0981 11.1876 11.15 11.0346 11.15C10.8816 11.15 10.75 11.0917 10.6398 10.975ZM2.10169 15C1.80791 15 1.55085 14.8833 1.33051 14.65C1.11017 14.4167 1 14.1444 1 13.8333V2.16667C1 1.85556 1.11017 1.58333 1.33051 1.35C1.55085 1.11667 1.80791 1 2.10169 1H6.89407C7.0532 1 7.18479 1.05509 7.28884 1.16528C7.39289 1.27546 7.44491 1.41481 7.44491 1.58333C7.44491 1.75185 7.39289 1.8912 7.28884 2.00139C7.18479 2.11157 7.0532 2.16667 6.89407 2.16667H2.10169V13.8333H6.89407C7.0532 13.8333 7.18479 13.8884 7.28884 13.9986C7.39289 14.1088 7.44491 14.2481 7.44491 14.4167C7.44491 14.5852 7.39289 14.7245 7.28884 14.8347C7.18479 14.9449 7.0532 15 6.89407 15H2.10169Z" fill="white" stroke="white" stroke-width="0.3"/>
</svg>
