<svg width="32" height="32" viewBox="0 0 32 32" fill="none" xmlns="http://www.w3.org/2000/svg">
<rect x="0.5" y="0.5" width="31" height="31" rx="3.5" stroke="#747474"/>
<path d="M12.725 21.75H19.275C19.4917 21.75 19.6708 21.6792 19.8125 21.5375C19.9542 21.3958 20.025 21.2167 20.025 21C20.025 20.7833 19.9542 20.6042 19.8125 20.4625C19.6708 20.3208 19.4917 20.25 19.275 20.25H12.725C12.5083 20.25 12.3292 20.3208 12.1875 20.4625C12.0458 20.6042 11.975 20.7833 11.975 21C11.975 21.2167 12.0458 21.3958 12.1875 21.5375C12.3292 21.6792 12.5083 21.75 12.725 21.75V21.75ZM12.725 17.5H19.275C19.4917 17.5 19.6708 17.4292 19.8125 17.2875C19.9542 17.1458 20.025 16.9667 20.025 16.75C20.025 16.5333 19.9542 16.3542 19.8125 16.2125C19.6708 16.0708 19.4917 16 19.275 16H12.725C12.5083 16 12.3292 16.0708 12.1875 16.2125C12.0458 16.3542 11.975 16.5333 11.975 16.75C11.975 16.9667 12.0458 17.1458 12.1875 17.2875C12.3292 17.4292 12.5083 17.5 12.725 17.5ZM9.5 26C9.1 26 8.75 25.85 8.45 25.55C8.15 25.25 8 24.9 8 24.5V7.5C8 7.1 8.15 6.75 8.45 6.45C8.75 6.15 9.1 6 9.5 6H17.9C18.1 6 18.2958 6.04167 18.4875 6.125C18.6792 6.20833 18.8417 6.31667 18.975 6.45L23.55 11.025C23.6833 11.1583 23.7917 11.3208 23.875 11.5125C23.9583 11.7042 24 11.9 24 12.1V24.5C24 24.9 23.85 25.25 23.55 25.55C23.25 25.85 22.9 26 22.5 26H9.5ZM17.775 11.4V7.5H9.5V24.5H22.5V12.15H18.525C18.3083 12.15 18.1292 12.0792 17.9875 11.9375C17.8458 11.7958 17.775 11.6167 17.775 11.4ZM9.5 7.5V12.15V7.5V24.5V7.5Z" fill="#747474"/>
</svg>
