<svg width="32" height="32" viewBox="0 0 32 32" fill="none" xmlns="http://www.w3.org/2000/svg">
<path d="M16.0083 6C10.4871 6 6 10.536 6 16.1176C6 20.8222 9.2944 24.9705 13.8315 25.9906C13.9566 26.0159 14.0817 25.9906 14.1818 25.9063C14.2819 25.822 14.3403 25.704 14.3403 25.5775V23.2842C14.3403 23.0481 14.1568 22.8626 13.9233 22.8626H13.0892C12.0467 22.8626 11.3378 21.8677 10.7122 20.9824C10.6455 20.8897 10.5871 20.8054 10.5204 20.7126C10.8123 20.8728 11.0709 21.0583 11.3211 21.2522C11.8215 21.6232 12.3386 22.0111 13.0225 22.0111H13.0308C13.0809 22.0111 13.573 22.0701 13.9483 21.7328C14.1234 21.5726 14.3319 21.2775 14.3319 20.7464V20.4513C14.3319 20.2658 14.2068 20.0972 14.0317 20.0466C11.7214 19.3805 10.1618 17.6352 10.1618 15.6876C10.1618 14.6758 10.5705 13.7062 11.3544 12.8968C11.4712 12.7703 11.5046 12.5849 11.4295 12.4247C11.1209 11.7502 11.1876 10.8311 11.5546 10.2747C12.0384 10.4686 12.6722 10.8649 13.0809 11.3623C13.1976 11.4972 13.3811 11.5478 13.5396 11.4888C15.0992 10.907 16.8924 10.907 18.452 11.4888C18.6188 11.5478 18.8023 11.4972 18.9107 11.3623C19.3194 10.8733 19.9533 10.4686 20.437 10.2747C20.804 10.8311 20.8707 11.7502 20.5621 12.4247C20.487 12.5849 20.5204 12.7703 20.6372 12.8968C21.4128 13.7147 21.8298 14.6758 21.8298 15.6876C21.8298 17.728 20.1034 19.5576 17.6347 20.1309C17.5096 20.1646 17.4011 20.2489 17.3511 20.367C17.3011 20.485 17.3011 20.6199 17.3594 20.7379C17.5679 21.1342 17.6597 21.6738 17.6597 22.4326V25.5691C17.6597 25.6955 17.7181 25.8136 17.8182 25.8979C17.8932 25.9569 17.985 25.9906 18.0767 25.9906C18.1101 25.9906 18.1351 25.9906 18.1684 25.9822C22.7056 24.962 26 20.8138 26 16.1091C26.0166 10.536 21.5296 6 16.0083 6Z" fill="#747474"/>
<rect x="0.5" y="0.5" width="31" height="31" rx="3.5" stroke="#747474"/>
</svg>
