<svg width="16" height="16" viewBox="0 0 16 16" fill="none" xmlns="http://www.w3.org/2000/svg">
<path d="M9.7641 0.0152769C11.5692 0.409081 13.0598 1.33588 14.2359 2.79567C15.412 4.25546 16 5.99024 16 8C16 9.19499 15.7162 10.3357 15.1487 11.422C14.5812 12.5084 13.8188 13.4725 12.8615 14.3145H14.7487C14.9265 14.3145 15.0735 14.3722 15.1897 14.4876C15.306 14.603 15.3641 14.749 15.3641 14.9255C15.3641 15.1021 15.306 15.248 15.1897 15.3635C15.0735 15.4789 14.9265 15.5366 14.7487 15.5366H11.2821C11.1043 15.5366 10.9573 15.4789 10.841 15.3635C10.7248 15.248 10.6667 15.1021 10.6667 14.9255V11.4831C10.6667 11.3066 10.7248 11.1606 10.841 11.0452C10.9573 10.9298 11.1043 10.8721 11.2821 10.8721C11.4598 10.8721 11.6068 10.9298 11.7231 11.0452C11.8393 11.1606 11.8974 11.3066 11.8974 11.4831V13.4997C12.7726 12.7936 13.4701 11.9652 13.9897 11.0146C14.5094 10.0641 14.7692 9.0592 14.7692 8C14.7692 6.28899 14.2735 4.81901 13.2821 3.59007C12.2906 2.36113 11.0291 1.57692 9.49744 1.23743C9.36068 1.21027 9.24786 1.13898 9.15897 1.02355C9.07009 0.908127 9.02564 0.782516 9.02564 0.646722C9.02564 0.42945 9.10085 0.259707 9.25128 0.137492C9.40171 0.0152768 9.57265 -0.0254615 9.7641 0.0152769ZM6.2359 15.9847C4.43077 15.5909 2.94017 14.6641 1.7641 13.2043C0.588034 11.7445 0 10.0098 0 8C0 6.80501 0.283761 5.66433 0.851282 4.57798C1.4188 3.49162 2.1812 2.52748 3.13846 1.68555H1.25128C1.0735 1.68555 0.926496 1.62784 0.810256 1.51241C0.694017 1.39699 0.635898 1.25101 0.635898 1.07447C0.635898 0.897942 0.694017 0.751963 0.810256 0.636537C0.926496 0.521112 1.0735 0.463399 1.25128 0.463399H4.71795C4.89573 0.463399 5.04274 0.521112 5.15897 0.636537C5.27521 0.751963 5.33333 0.897942 5.33333 1.07447V4.51687C5.33333 4.6934 5.27521 4.83938 5.15897 4.95481C5.04274 5.07023 4.89573 5.12794 4.71795 5.12794C4.54017 5.12794 4.39316 5.07023 4.27692 4.95481C4.16068 4.83938 4.10256 4.6934 4.10256 4.51687V2.50032C3.22735 3.19287 2.52991 4.01782 2.01026 4.97518C1.4906 5.93253 1.23077 6.9408 1.23077 8C1.23077 9.71101 1.7265 11.181 2.71795 12.4099C3.7094 13.6389 4.97094 14.4231 6.50256 14.7626C6.63932 14.7897 6.75214 14.861 6.84103 14.9764C6.92991 15.0919 6.97436 15.2175 6.97436 15.3533C6.97436 15.5706 6.89915 15.7403 6.74872 15.8625C6.59829 15.9847 6.42735 16.0255 6.2359 15.9847Z" fill="white"/>
</svg>
