<svg width="32" height="32" viewBox="0 0 32 32" fill="none" xmlns="http://www.w3.org/2000/svg">
<path d="M25.923 9.91936C25.3207 10.1986 24.6483 10.3705 23.997 10.4779C24.3051 10.4278 24.7604 9.85491 24.9425 9.61861C25.2226 9.26774 25.4537 8.86674 25.5798 8.42994C25.5938 8.39413 25.6078 8.35117 25.5798 8.32969C25.5378 8.31537 25.5098 8.32253 25.4747 8.33685C24.7464 8.73785 23.997 9.02427 23.1986 9.23193C23.1355 9.24625 23.0865 9.23193 23.0445 9.18897C22.9815 9.1102 22.9184 9.03859 22.8484 8.98131C22.5122 8.68772 22.148 8.45858 21.7418 8.28672C21.2096 8.06474 20.6213 7.97166 20.047 8.00746C19.4867 8.04326 18.9404 8.20796 18.4431 8.4729C17.9459 8.73785 17.4977 9.1102 17.1475 9.55416C16.7833 10.0124 16.5102 10.5638 16.3701 11.1367C16.237 11.6952 16.251 12.2466 16.3281 12.8123C16.3421 12.9054 16.3281 12.9197 16.251 12.9054C13.1204 12.4256 10.5221 11.287 8.42102 8.83094C8.32998 8.72353 8.28095 8.72353 8.20391 8.8381C7.27944 10.2487 7.72767 12.5187 8.88326 13.6357C9.03734 13.7861 9.19142 13.9365 9.36651 14.0654C9.30347 14.0797 8.54008 13.9938 7.85373 13.6357C7.76269 13.5785 7.71366 13.6071 7.70666 13.7145C7.69965 13.8649 7.70666 14.0081 7.73467 14.1728C7.90976 15.6049 8.88326 16.9296 10.2069 17.4452C10.368 17.5097 10.5361 17.5741 10.7112 17.6027C10.41 17.6672 10.0949 17.7173 9.22643 17.6529C9.12138 17.6314 9.07936 17.6887 9.12138 17.7961C9.77271 19.6149 11.1804 20.1519 12.238 20.4599C12.378 20.4885 12.5181 20.4885 12.6652 20.5171C12.6582 20.5315 12.6512 20.5315 12.6372 20.5458C12.287 21.09 11.0754 21.4982 10.5081 21.6986C9.47856 22.0638 8.36499 22.2285 7.27944 22.1211C7.10435 22.0925 7.06933 22.0996 7.02031 22.1211C6.97128 22.1498 7.02031 22.1927 7.06933 22.2429C7.28644 22.3932 7.51056 22.5221 7.74168 22.651C8.42803 23.0234 9.14939 23.3241 9.89878 23.5318C13.7788 24.6274 18.149 23.8254 21.0625 20.8609C23.3526 18.5336 24.1511 15.3328 24.1511 12.1177C24.1511 11.9888 24.2981 11.9243 24.3822 11.8599C24.9775 11.4016 25.4607 10.8574 25.902 10.2416C26 10.1055 26 9.9838 26 9.93368V9.91936C26 9.86923 26 9.88355 25.923 9.91936V9.91936Z" fill="#747474"/>
<rect x="0.5" y="0.5" width="31" height="31" rx="3.5" stroke="#747474"/>
</svg>
