<svg width="15" height="12" viewBox="0 0 15 12" fill="none" xmlns="http://www.w3.org/2000/svg">
<path d="M12.1875 6.31566C12.3601 6.31566 12.5 6.17428 12.5 5.99987C12.5 5.82547 12.3601 5.68408 12.1875 5.68408C12.0149 5.68408 11.875 5.82547 11.875 5.99987C11.875 6.17428 12.0149 6.31566 12.1875 6.31566Z" fill="white"/>
<path d="M12.1875 8.21053C10.9813 8.21053 10 7.21895 10 6C10 4.78105 10.9813 3.78947 12.1875 3.78947H15V2.21053C15 0.991579 14.0187 0 12.8125 0H2.1875C0.98125 0 0 0.991579 0 2.21053V9.78947C0 11.0084 0.98125 12 2.1875 12H12.8125C14.0187 12 15 11.0084 15 9.78947V8.21053H12.1875Z" fill="white"/>
<path d="M10.625 5.99985C10.625 6.87142 11.325 7.57879 12.1875 7.57879H15V4.4209H12.1875C11.325 4.4209 10.625 5.12827 10.625 5.99985ZM13.125 5.99985C13.125 6.52406 12.7062 6.94721 12.1875 6.94721C11.6687 6.94721 11.25 6.52406 11.25 5.99985C11.25 5.47564 11.6687 5.05248 12.1875 5.05248C12.7062 5.05248 13.125 5.47564 13.125 5.99985Z" fill="white"/>
</svg>
