<svg width="207" height="50" viewBox="0 0 207 50" fill="none" xmlns="http://www.w3.org/2000/svg">
<path fill-rule="evenodd" clip-rule="evenodd" d="M49.5177 25C49.5177 38.8075 38.4328 50 24.7588 50C11.0849 50 0 38.8075 0 25C0 11.1925 11.0849 0 24.7588 0C38.4328 0 49.5177 11.1925 49.5177 25ZM25.1576 31.9851C24.9623 35.8778 23.4032 39.8736 19.8613 41.9542C18.6366 42.6731 17.2646 43.1424 15.8974 43.3756C12.8634 43.8938 10.5422 41.2815 9.61159 38.2975C6.60112 28.6458 4.61511 28.3203 3.51066 28.1386C2.77988 28.0165 2.43515 27.9595 2.43515 25.3065C2.43515 17.5618 6.25907 10.7259 12.0891 6.64334C12.5148 6.34494 13.0454 6.87391 12.8343 7.35406C12.113 8.99523 11.7107 10.8127 11.7107 12.7224C11.7107 17.7409 14.474 22.111 18.5334 24.3462C21.7452 26.1149 25.3439 28.2742 25.1576 31.9851ZM12.9885 12.7089C12.9885 16.7697 15.6203 20.0575 18.8512 22.1246C21.9304 24.0967 25.5827 22.054 28.7081 20.1552C32.6584 17.7572 37.7834 17.513 42.0728 19.9626C43.7062 20.893 45.0572 22.1246 46.0979 23.546C46.4024 23.961 47.122 23.763 47.081 23.253C46.5176 16.2489 42.5954 9.62728 35.9724 5.84852C34.9417 5.25987 34.3334 4.99403 33.9325 4.93164C33.4505 4.8584 33.268 5.07812 33.0114 5.39008C32.3014 6.25271 31.0248 7.80165 21.2606 5.68034C18.2421 5.02387 14.843 5.74544 13.7633 8.60731C13.2767 9.89583 12.9887 11.3037 12.9885 12.7089ZM30.0062 21.2891C33.4385 19.5231 37.6425 18.9046 41.2055 20.9744C42.4373 21.6878 43.529 22.659 44.4171 23.7386C46.3882 26.1393 45.3191 29.4732 43.2322 31.7735C36.4818 39.2117 37.201 41.1133 37.601 42.1712C37.8657 42.8711 37.9905 43.202 35.7175 44.5231C29.0849 48.3751 21.3101 48.4212 14.8808 45.3423C14.4114 45.1172 14.5985 44.3902 15.1158 44.3359C15.7766 44.2681 16.4361 44.1488 17.0882 43.9752C18.1806 43.6849 19.2528 43.2454 20.2771 42.6514C24.5731 40.1557 26.9257 35.5604 26.7984 30.8919C26.6973 27.1973 26.7348 22.9709 30.0062 21.2891Z" fill="white"/>
<path d="M74.6824 29.8582C74.6824 30.4404 74.4799 30.9423 74.0741 31.3638C73.6875 31.7653 73.2135 31.966 72.6535 31.966H64.5356C63.9751 31.966 63.4919 31.7653 63.086 31.3638C62.6994 30.9423 62.5062 30.4404 62.5062 29.8582V19.3197C62.5062 18.7376 62.6994 18.2457 63.086 17.8443C63.4919 17.4227 63.9751 17.2119 64.5356 17.2119H72.6535C73.2135 17.2119 73.6875 17.4227 74.0741 17.8443C74.4799 18.2457 74.6824 18.7376 74.6824 19.3197V21.4274H72.3636V19.3197H64.8255V29.8582H72.3636V27.7506H74.6824V29.8582Z" fill="white"/>
<path d="M90.9183 30.6546C90.9183 31.2432 90.7073 31.7506 90.2852 32.1768C89.883 32.5828 89.3905 32.7857 88.8077 32.7857H82.476C81.8925 32.7857 81.3901 32.5828 80.968 32.1768C80.5658 31.7506 80.3654 31.2432 80.3654 30.6546V24.2611C80.3654 23.6725 80.5658 23.1753 80.968 22.7693C81.3901 22.3431 81.8925 22.13 82.476 22.13H88.8077C89.3905 22.13 89.883 22.3431 90.2852 22.7693C90.7073 23.1753 90.9183 23.6725 90.9183 24.2611V30.6546ZM88.8077 30.959V23.9567H82.476V30.959H88.8077Z" fill="white"/>
<path d="M105.53 22.13L103.714 23.9567H98.6834V26.3922H102.851C103.426 26.3922 103.912 26.6053 104.309 27.0316C104.726 27.4375 104.934 27.9348 104.934 28.5234V30.6546C104.934 31.2432 104.726 31.7506 104.309 32.1768C103.912 32.5828 103.426 32.7857 102.851 32.7857H96.5999V30.959H102.851V28.2189H98.6834C98.1078 28.2189 97.6118 28.016 97.1954 27.6101C96.7988 27.1838 96.5999 26.6764 96.5999 26.0878V24.2611C96.5999 23.6725 96.7988 23.1753 97.1954 22.7693C97.6118 22.3431 98.1078 22.13 98.6834 22.13H105.53Z" fill="white"/>
<path d="M129.071 32.7857H126.952V23.9567H121.201V32.7857H119.082V23.9567H113.33V32.7857H111.212V22.13H113.33V23.6522L114.844 22.13H119.082C120.313 22.13 121.009 22.6476 121.17 23.6827L122.714 22.13H126.952C127.537 22.13 128.031 22.3431 128.435 22.7693C128.858 23.1753 129.071 23.6725 129.071 24.2611V32.7857Z" fill="white"/>
<path d="M154.235 17.2119L151 31.966H147.029L144.235 21.1564H143.941L141.147 31.966H137.176L133.941 17.2119H136.588L138.941 29.9185H139.529L142.912 17.2119H145.265L148.647 29.9185H149.235L151.588 17.2119H154.235Z" fill="white"/>
<path d="M169.659 32.7857H167.548V31.233L165.74 32.7857H161.216C160.634 32.7857 160.131 32.5828 159.709 32.1768C159.307 31.7506 159.106 31.2432 159.106 30.6546V28.5234C159.106 27.9348 159.307 27.4375 159.709 27.0316C160.131 26.6053 160.634 26.3922 161.216 26.3922H167.247L165.438 28.1885H161.216V30.959H167.548V23.9567H159.106L160.915 22.13H167.548C168.132 22.13 168.624 22.3431 169.026 22.7693C169.448 23.1753 169.659 23.6725 169.659 24.2611V32.7857Z" fill="white"/>
<path d="M184.27 22.13L182.455 23.9567H177.425V26.3922H181.592C182.168 26.3922 182.654 26.6053 183.05 27.0316C183.467 27.4375 183.676 27.9348 183.676 28.5234V30.6546C183.676 31.2432 183.467 31.7506 183.05 32.1768C182.654 32.5828 182.168 32.7857 181.592 32.7857H175.341V30.959H181.592V28.2189H177.425C176.849 28.2189 176.353 28.016 175.937 27.6101C175.539 27.1838 175.341 26.6764 175.341 26.0878V24.2611C175.341 23.6725 175.539 23.1753 175.937 22.7693C176.353 22.3431 176.849 22.13 177.425 22.13H184.27Z" fill="white"/>
<path d="M207 32.7857H204.881V23.9567H199.13V32.7857H197.011V23.9567H191.26V32.7857H189.141V22.13H191.26V23.6522L192.773 22.13H197.011C198.242 22.13 198.938 22.6476 199.1 23.6827L200.643 22.13H204.881C205.466 22.13 205.96 22.3431 206.364 22.7693C206.788 23.1753 207 23.6725 207 24.2611V32.7857Z" fill="white"/>
</svg>
