<svg width="168" height="30" viewBox="0 0 168 30" fill="none" xmlns="http://www.w3.org/2000/svg">
<path fill-rule="evenodd" clip-rule="evenodd" d="M18.6666 21.9358L16.3626 19.6043C15.4876 20.4202 14.6028 21.0666 13.708 21.5427C12.8139 22.0184 11.7444 22.2562 10.5 22.2562C9.52783 22.2562 8.62852 22.0671 7.80208 21.6881C6.97584 21.3091 6.26113 20.7897 5.65836 20.1287C5.05538 19.4682 4.58923 18.696 4.25829 17.8121C3.92756 16.9283 3.76279 15.9807 3.76279 14.9711C3.76279 13.9607 3.92756 13.0182 4.25829 12.1436C4.58923 11.2697 5.05538 10.5073 5.65836 9.85617C6.26113 9.20545 6.97584 8.69078 7.80208 8.31174C8.62852 7.93313 9.52783 7.7436 10.5 7.7436C11.6665 7.7436 12.7069 7.97675 13.6208 8.44308C14.5348 8.90899 15.4001 9.52119 16.2163 10.2788L18.5207 7.62722C18.0347 7.16091 17.5196 6.73351 16.9749 6.34467C16.4308 5.9562 15.8377 5.62083 15.1959 5.3393C14.5541 5.0574 13.8493 4.83919 13.0811 4.68388C12.313 4.52817 11.4623 4.45032 10.5291 4.45032C8.97363 4.45032 7.55433 4.72752 6.27105 5.28111C4.98737 5.83471 3.87918 6.59236 2.94587 7.55409C2.01235 8.51581 1.28834 9.63756 0.772799 10.92C0.257261 12.2023 0 13.5721 0 15.0292C0 16.5056 0.262528 17.8849 0.787376 19.1674C1.31243 20.4493 2.03685 21.5615 2.96044 22.504C3.88404 23.446 4.97746 24.1891 6.2415 24.7334C7.50555 25.2774 8.88639 25.5493 10.3832 25.5493C11.3364 25.5493 12.2063 25.4665 12.9939 25.3015C13.7813 25.1363 14.5057 24.8938 15.1668 24.5734C15.8278 24.2524 16.4454 23.8734 17.019 23.4365C17.5924 22.9995 18.1418 22.4989 18.6666 21.9358Z" fill="white"/>
<path fill-rule="evenodd" clip-rule="evenodd" d="M64.9472 10.227C64.9472 9.54837 65.2372 8.97173 65.8176 8.49707C66.3977 8.02161 67.2101 7.78429 68.2542 7.78429C69.1826 7.78429 70.1011 7.96395 71.01 8.3225C71.919 8.68104 72.8375 9.19963 73.7656 9.8779L75.6802 7.1739C74.6363 6.3403 73.5194 5.70559 72.3301 5.26976C71.1403 4.83355 69.8014 4.61544 68.3123 4.61544C67.3067 4.61544 66.3784 4.75588 65.5324 5.03715C64.6814 5.31802 63.9566 5.72012 63.352 6.24342C62.7476 6.76711 62.2738 7.39201 61.9258 8.1189C61.5825 8.84579 61.4085 9.65508 61.4085 10.5467C61.4085 11.4964 61.5582 12.301 61.858 12.9601C62.1578 13.6191 62.5978 14.1811 63.1684 14.6465C63.7386 15.1117 64.4493 15.4992 65.2905 15.8096C66.1365 16.1199 67.099 16.4004 68.1866 16.6526C69.1344 16.8852 69.9028 17.1081 70.4977 17.3211C71.0875 17.5344 71.5516 17.7624 71.8947 18.0043C72.2329 18.2468 72.4655 18.5131 72.591 18.8038C72.7167 19.0948 72.7792 19.4241 72.7792 19.7924C72.7792 20.5874 72.4556 21.2174 71.8079 21.6824C71.1598 22.148 70.2847 22.3802 69.1826 22.3802C67.9064 22.3802 66.765 22.1522 65.7597 21.697C64.7539 21.2415 63.7582 20.5874 62.7715 19.7343L60.6253 22.2932C61.8436 23.3979 63.1684 24.2168 64.5993 24.75C66.0305 25.2831 67.5291 25.5495 69.0954 25.5495C70.159 25.5495 71.1359 25.4138 72.0255 25.1427C72.91 24.8709 73.6739 24.4735 74.3026 23.9501C74.9357 23.4268 75.429 22.7875 75.7866 22.0315C76.1396 21.2757 76.3186 20.4129 76.3186 19.4437C76.3186 18.5908 76.1783 17.8493 75.8978 17.2193C75.6172 16.5893 75.2015 16.0374 74.6602 15.5621C74.1186 15.0874 73.4322 14.6849 72.6102 14.3555C71.7886 14.0262 70.8408 13.7258 69.7771 13.4542C68.8053 13.2216 68.0076 12.9986 67.3745 12.7854C66.746 12.5724 66.2527 12.3398 65.89 12.0876C65.5324 11.8358 65.286 11.5644 65.1502 11.2736C65.0152 10.9825 64.9472 10.6338 64.9472 10.227Z" fill="white"/>
<path fill-rule="evenodd" clip-rule="evenodd" d="M104.656 10.5149V25.055H108.201V4.78016H104.394L98.2061 14.3674L92.0181 4.78016H88.2124V25.055H91.7565V10.5728L98.1187 20.0731H98.2351L104.656 10.5149Z" fill="white"/>
<path fill-rule="evenodd" clip-rule="evenodd" d="M137.979 15.0292C137.979 16.02 137.809 16.9574 137.47 17.8417C137.13 18.7255 136.66 19.4926 136.058 20.1433C135.456 20.7941 134.733 21.3091 133.889 21.6881C133.045 22.0671 132.118 22.2564 131.109 22.2564C130.1 22.2564 129.168 22.062 128.314 21.6735C127.46 21.2848 126.727 20.7604 126.116 20.1002C125.505 19.4392 125.029 18.6671 124.689 17.783C124.35 16.8992 124.18 15.9615 124.18 14.9711C124.18 13.9799 124.35 13.0424 124.689 12.1586C125.029 11.2744 125.5 10.5073 126.101 9.85617C126.703 9.20547 127.426 8.69078 128.27 8.31176C129.114 7.93313 130.041 7.74362 131.051 7.74362C132.06 7.74362 132.992 7.93784 133.845 8.32671C134.699 8.71517 135.432 9.23967 136.043 9.9002C136.655 10.5604 137.13 11.333 137.47 12.2169C137.809 13.1007 137.979 14.0385 137.979 15.0292ZM141.735 14.9711C141.735 13.5331 141.472 12.1732 140.948 10.8906C140.425 9.60886 139.697 8.49144 138.765 7.53955C137.834 6.58727 136.718 5.83471 135.417 5.28111C134.117 4.72752 132.681 4.45032 131.109 4.45032C129.537 4.45032 128.101 4.73224 126.8 5.29567C125.5 5.85908 124.374 6.62147 123.423 7.58319C122.472 8.54492 121.735 9.66705 121.211 10.9491C120.687 12.2314 120.425 13.5914 120.425 15.0292C120.425 16.4668 120.687 17.8263 121.211 19.109C121.735 20.3914 122.462 21.5085 123.394 22.4603C124.325 23.4123 125.442 24.1653 126.742 24.7188C128.042 25.2724 129.478 25.5493 131.051 25.5493C132.622 25.5493 134.059 25.2673 135.359 24.7043C136.66 24.1408 137.785 23.3785 138.736 22.4164C139.687 21.4551 140.425 20.3328 140.948 19.0507C141.472 17.7684 141.735 16.4085 141.735 14.9711Z" fill="white"/>
<path fill-rule="evenodd" clip-rule="evenodd" d="M156.629 10.227C156.629 9.54837 156.918 8.97173 157.499 8.49707C158.08 8.02161 158.892 7.78429 159.936 7.78429C160.863 7.78429 161.782 7.96395 162.691 8.3225C163.6 8.68104 164.519 9.19963 165.448 9.8779L167.362 7.1739C166.318 6.3403 165.201 5.70559 164.011 5.26976C162.822 4.83355 161.482 4.61544 159.995 4.61544C158.989 4.61544 158.06 4.75588 157.214 5.03715C156.363 5.31802 155.639 5.72012 155.034 6.24342C154.428 6.76711 153.955 7.39201 153.607 8.1189C153.265 8.84579 153.091 9.65508 153.091 10.5467C153.091 11.4964 153.24 12.301 153.54 12.9601C153.839 13.6191 154.279 14.1811 154.849 14.6465C155.42 15.1117 156.131 15.4992 156.973 15.8096C157.819 16.1199 158.78 16.4004 159.869 16.6526C160.816 16.8852 161.584 17.1081 162.179 17.3211C162.768 17.5344 163.233 17.7624 163.577 18.0043C163.915 18.2468 164.146 18.5131 164.274 18.8038C164.399 19.0948 164.462 19.4241 164.462 19.7924C164.462 20.5874 164.136 21.2174 163.49 21.6824C162.841 22.148 161.966 22.3802 160.863 22.3802C159.588 22.3802 158.446 22.1522 157.442 21.697C156.436 21.2415 155.44 20.5874 154.453 19.7343L152.307 22.2932C153.526 23.3979 154.849 24.2168 156.28 24.75C157.712 25.2831 159.209 25.5495 160.776 25.5495C161.841 25.5495 162.816 25.4138 163.707 25.1427C164.591 24.8709 165.357 24.4735 165.984 23.9501C166.618 23.4268 167.111 22.7875 167.468 22.0315C167.822 21.2757 168 20.4129 168 19.4437C168 18.5908 167.86 17.8493 167.579 17.2193C167.3 16.5893 166.883 16.0374 166.342 15.5621C165.8 15.0874 165.114 14.6849 164.292 14.3555C163.47 14.0262 162.523 13.7258 161.458 13.4542C160.487 13.2216 159.689 12.9986 159.056 12.7854C158.428 12.5724 157.934 12.3398 157.572 12.0876C157.214 11.8358 156.967 11.5644 156.831 11.2736C156.697 10.9825 156.629 10.6338 156.629 10.227Z" fill="white"/>
<path fill-rule="evenodd" clip-rule="evenodd" d="M42.9801 8.83895L33.2684 18.5299C33.1434 18.2874 33.0302 18.0348 32.929 17.7727C32.5898 16.8923 32.4203 15.9581 32.4203 14.9713C32.4203 13.9839 32.5898 13.0501 32.929 12.1695C33.2684 11.2885 33.7388 10.5244 34.3402 9.87577C34.9416 9.22751 35.6642 8.71479 36.5078 8.33718C37.3519 7.95999 38.2777 7.77118 39.2863 7.77118C40.2951 7.77118 41.2262 7.9647 42.0791 8.35207C42.3963 8.49583 42.6967 8.658 42.9801 8.83895ZM42.1231 21.663C41.2792 22.0406 40.3532 22.2291 39.3448 22.2291C38.336 22.2291 37.4047 22.0355 36.5513 21.6486C36.2346 21.5044 35.9344 21.3422 35.6512 21.161L45.3624 11.4707C45.4877 11.7128 45.6007 11.965 45.7019 12.2276C46.0411 13.108 46.2107 14.0422 46.2107 15.0294C46.2107 16.0163 46.0411 16.9501 45.7019 17.8311C45.3624 18.7115 44.8922 19.4759 44.2907 20.1241C43.6893 20.7723 42.9671 21.2854 42.1231 21.663ZM43.5923 24.6678C44.8922 24.1066 46.0172 23.3469 46.9675 22.3885C47.9178 21.4308 48.6546 20.313 49.1782 19.0356C49.7023 17.7583 49.9642 16.4035 49.9642 14.9713C49.9642 13.539 49.7023 12.1841 49.1782 10.9064C48.8677 10.1488 48.4854 9.44926 48.0318 8.80728L54.3482 2.5045L51.8381 0L45.5025 6.32197C44.9337 5.93498 44.3164 5.60046 43.6504 5.31806C42.3508 4.76656 40.9157 4.4904 39.3448 4.4904C37.7733 4.4904 36.3382 4.77125 35.0385 5.33256C33.7388 5.89385 32.6138 6.65334 31.6633 7.61143C30.713 8.56953 29.9758 9.68741 29.4522 10.9647C28.9286 12.2421 28.6667 13.597 28.6667 15.0294C28.6667 16.4615 28.9286 17.816 29.4522 19.0936C29.7631 19.8514 30.1455 20.551 30.5993 21.1936L24.2833 27.4955L26.7932 30L33.1284 23.6784C33.6971 24.0653 34.3147 24.3999 34.9804 24.6822C36.2801 25.2337 37.7152 25.5096 39.2863 25.5096C40.8576 25.5096 42.2927 25.2287 43.5923 24.6678Z" fill="white"/>
</svg>
