<svg width="98" height="31" viewBox="0 0 98 31" fill="none" xmlns="http://www.w3.org/2000/svg">
<path d="M13.0852 9.64226C13.0852 18.6672 13.0749 19.3251 12.9001 19.9521C12.4273 21.6379 11.2863 22.748 9.66226 23.0872C8.18208 23.4058 6.54772 22.8611 5.25257 21.6173C4.86197 21.237 4.44053 20.7436 4.33774 20.5277C4.22467 20.3221 4.08076 20.1474 4.00881 20.1474C3.93686 20.1474 3.01175 21.0211 1.94273 22.0901L0 24.0431L0.287812 24.4337C1.70631 26.3045 4.45081 27.9286 7.11307 28.4734C8.35683 28.7201 10.2996 28.7509 11.5536 28.5248C14.9559 27.9286 17.7107 25.5028 18.6358 22.306C18.7592 21.8845 18.9134 21.4426 18.975 21.3295C19.0675 21.1753 19.1087 18.5028 19.1292 10.5571L19.1601 0.000554495H16.1175H13.0852V9.64226Z" fill="white"/>
<path d="M93.652 6.64029L91.9559 8.35688L90.6813 7.72986C89.7459 7.2673 89.0984 7.03089 88.2349 6.82531C87.1351 6.56833 86.9603 6.55805 85.0998 6.59917C83.3627 6.65056 83.0337 6.6814 82.232 6.9281C75.2114 9.03529 71.8502 16.3231 75.0675 22.5008C75.3039 22.9428 75.6226 23.4876 75.787 23.7137L76.0851 24.1043L74.1732 26.0265L72.2614 27.9384L73.5565 29.2541L74.8517 30.5801L76.7944 28.6476L78.7371 26.7049L79.6006 27.1777C80.6182 27.7225 81.8414 28.2056 82.7768 28.4318C83.671 28.6579 86.4258 28.7401 87.3612 28.586C89.6843 28.1851 91.8428 27.1161 93.4978 25.5228C96.3451 22.7783 97.5374 19.1601 96.7973 15.4186C96.5815 14.2879 95.9236 12.7666 95.1321 11.5845L94.6696 10.8752L96.3348 9.21004L98 7.54484L96.7048 6.27024C95.9956 5.56099 95.3994 4.97509 95.3788 4.95453C95.3583 4.94425 94.5873 5.69462 93.652 6.64029ZM86.4155 11.6667C87.207 11.8312 88.0191 12.119 88.0191 12.2218C88.0191 12.2629 86.2614 14.0514 84.113 16.1895C80.4743 19.8077 80.1865 20.0647 80.0631 19.8796C79.6006 19.2218 79.4361 17.2174 79.7547 15.9942C79.8473 15.655 79.95 15.3466 79.9912 15.3158C80.0323 15.2849 80.207 15.0074 80.3715 14.7093C81.2246 13.1161 83.0337 11.8517 84.7812 11.6153C85.6652 11.5023 85.6446 11.5023 86.4155 11.6667ZM91.1439 16.21C91.6681 18.2144 90.928 20.5683 89.3142 22.0588C87.5873 23.6726 85.3465 24.0735 83.2599 23.1484L82.6534 22.8914L86.652 18.8929L90.6402 14.9046L90.8149 15.2438C90.9075 15.4288 91.0616 15.8605 91.1439 16.21Z" fill="white"/>
<path d="M60.3171 6.64056C59.5668 6.80502 59.0836 6.96949 58.3127 7.33953C57.6137 7.67874 57.254 7.93571 56.5447 8.64497L55.6402 9.52896V8.25436V6.99005H52.6079H49.5756V17.6288V28.2676L52.5873 28.247L55.5888 28.2162L55.6402 21.5348L55.6916 14.8535L56.0411 14.1134C56.7709 12.5407 58.2716 11.6156 60.0601 11.6156C61.3245 11.6156 62.1982 11.9959 62.9794 12.8594C63.483 13.4144 63.6681 13.7639 63.9456 14.6479C64.0792 15.0899 64.1101 16.1281 64.1409 21.7096L64.182 28.2676H67.0601H69.928V21.0928C69.9177 14.504 69.9074 13.8564 69.7327 13.0033C69.2598 10.7522 68.345 9.21031 66.7518 8.00767C65.2922 6.89754 64.2231 6.57889 62.0132 6.58917C61.1908 6.59944 60.4302 6.62 60.3171 6.64056Z" fill="white"/>
<path d="M24.3921 14.3701C24.3921 20.3525 24.4229 21.8738 24.536 22.4391C24.6182 22.8195 24.7313 23.1895 24.7827 23.2615C24.8341 23.3334 24.9369 23.5698 25.0088 23.796C25.6358 25.7798 27.558 27.63 29.7372 28.3701C30.6931 28.6991 32.9853 28.7813 34.1057 28.5243C35.7915 28.1543 37.1381 27.3833 38.1557 26.2424L38.6799 25.6462V26.9516V28.2673H41.6608H44.6417V17.6286V6.9898H41.6608H38.6799V13.1161C38.6799 19.7255 38.6388 20.3422 38.166 21.2776C37.1278 23.3129 34.4758 24.2277 32.4714 23.2409C31.2482 22.6447 30.5081 21.5551 30.2511 19.9927C30.1894 19.6433 30.1483 16.7137 30.1483 13.1778V6.9898H27.2702H24.3921V14.3701Z" fill="white"/>
</svg>
