<svg width="128" height="30" viewBox="0 0 128 30" fill="none" xmlns="http://www.w3.org/2000/svg">
<path d="M7.30547 29.547C7.30547 29.6718 7.20331 29.774 7.07845 29.774H4.39054C4.26568 29.774 4.16353 29.6718 4.16353 29.547V12.877C4.16353 12.7522 4.06137 12.65 3.93651 12.65H0.227019C0.102158 12.65 0 12.5479 0 12.423V9.73549C0 9.61065 0.102158 9.50851 0.227019 9.50851H3.93651C4.06137 9.50851 4.16353 9.40636 4.16353 9.28152V0.226988C4.16353 0.102144 4.26568 0 4.39054 0H7.07845C7.20331 0 7.30547 0.102144 7.30547 0.226988V9.28152C7.30547 9.40636 7.40763 9.50851 7.53249 9.50851H11.242C11.3668 9.50851 11.469 9.61065 11.469 9.73549V12.423C11.469 12.5479 11.3668 12.65 11.242 12.65H7.53249C7.40763 12.65 7.30547 12.7522 7.30547 12.877V29.547Z" fill="white"/>
<path d="M39.0496 1.57075V0.226988C39.0496 0.102144 39.1517 0 39.2766 0H41.9645C42.0893 0 42.1915 0.102144 42.1915 0.226988V26.4055C42.1915 26.5303 42.2937 26.6324 42.4185 26.6324H56.9046C57.0294 26.6324 57.1316 26.5303 57.1316 26.4055V12.877C57.1316 12.7522 57.0294 12.65 56.9046 12.65H45.6376C45.5128 12.65 45.4106 12.5479 45.4106 12.423V9.73549C45.4106 9.61065 45.5128 9.50851 45.6376 9.50851H60.0465C60.1714 9.50851 60.2735 9.61065 60.2735 9.73549V29.547C60.2735 29.6718 60.1714 29.774 60.0465 29.774H39.2766C39.1517 29.774 39.0496 29.6718 39.0496 29.547V1.57075Z" fill="white"/>
<path d="M83.1028 26.6454H84.4468C84.5717 26.6454 84.6738 26.7476 84.6738 26.8724V29.5599C84.6738 29.6848 84.5717 29.7869 84.4468 29.7869H63.6768C63.552 29.7869 63.4498 29.6848 63.4498 29.5599V9.74847C63.4498 9.62363 63.552 9.52148 63.6768 9.52148H84.4468C84.5717 9.52148 84.6738 9.62363 84.6738 9.74847V21.9422C84.6738 22.0671 84.5717 22.1692 84.4468 22.1692H70.0379C69.9131 22.1692 69.8109 22.0671 69.8109 21.9422V19.2547C69.8109 19.1299 69.9131 19.0277 70.0379 19.0277H81.3049C81.4297 19.0277 81.5319 18.9256 81.5319 18.8007V12.8877C81.5319 12.7629 81.4297 12.6607 81.3049 12.6607H66.8188C66.6939 12.6607 66.5918 12.7629 66.5918 12.8877V26.4162C66.5918 26.541 66.6939 26.6432 66.8188 26.6432H83.1028V26.6454Z" fill="white"/>
<path d="M16.2187 12.6415H14.8747C14.7499 12.6415 14.6477 12.5394 14.6477 12.4145V9.72699C14.6477 9.60214 14.7499 9.5 14.8747 9.5H35.6447C35.7695 9.5 35.8717 9.60214 35.8717 9.72699V29.5385C35.8717 29.6633 35.7695 29.7655 35.6447 29.7655H14.8747C14.7499 29.7655 14.6477 29.6633 14.6477 29.5385V17.3447C14.6477 17.2198 14.7499 17.1177 14.8747 17.1177H29.2836C29.4085 17.1177 29.5106 17.2198 29.5106 17.3447V20.0322C29.5106 20.1571 29.4085 20.2592 29.2836 20.2592H18.0167C17.8918 20.2592 17.7896 20.3614 17.7896 20.4862V26.3992C17.7896 26.5241 17.8918 26.6262 18.0167 26.6262H32.5027C32.6276 26.6262 32.7298 26.5241 32.7298 26.3992V12.8708C32.7298 12.7459 32.6276 12.6438 32.5027 12.6438H16.2187V12.6415Z" fill="white"/>
<path d="M89.4225 29.774H88.0786C87.9537 29.774 87.8516 29.6718 87.8516 29.547V0.226988C87.8516 0.102144 87.9537 0 88.0786 0H90.7665C90.8914 0 90.9935 0.102144 90.9935 0.226988V29.547C90.9935 29.6718 90.8914 29.774 90.7665 29.774H89.4225V29.774Z" fill="white"/>
<path d="M95.7392 29.774H94.3952C94.2704 29.774 94.1682 29.6718 94.1682 29.547V0.226988C94.1682 0.102144 94.2704 0 94.3952 0H97.0831C97.208 0 97.3102 0.102144 97.3102 0.226988V29.547C97.3102 29.6718 97.208 29.774 97.0831 29.774H95.7392V29.774Z" fill="white"/>
<path d="M106.824 11.0922V9.74847C106.824 9.62363 106.926 9.52148 107.051 9.52148H127.773C127.898 9.52148 128 9.62363 128 9.74847V29.5599C128 29.6848 127.898 29.7869 127.773 29.7869H107.051C106.926 29.7869 106.824 29.6848 106.824 29.5599V11.0922V11.0922ZM109.966 12.89V26.4184C109.966 26.5433 110.068 26.6454 110.193 26.6454H124.631C124.756 26.6454 124.858 26.5433 124.858 26.4184V12.89C124.858 12.7651 124.756 12.663 124.631 12.663H110.193C110.068 12.663 109.966 12.7651 109.966 12.89V12.89Z" fill="white"/>
<path d="M103.401 0H100.713C100.587 0 100.486 0.10164 100.486 0.227019V2.91492C100.486 3.0403 100.587 3.14194 100.713 3.14194H103.401C103.526 3.14194 103.628 3.0403 103.628 2.91492V0.227019C103.628 0.10164 103.526 0 103.401 0Z" fill="white"/>
<path d="M102.061 9.51172H103.405C103.529 9.51172 103.632 9.61386 103.632 9.73871V29.5502C103.632 29.675 103.529 29.7772 103.405 29.7772H100.717C100.592 29.7772 100.49 29.675 100.49 29.5502V9.73871C100.49 9.61386 100.592 9.51172 100.717 9.51172H102.061V9.51172Z" fill="white"/>
</svg>
