<svg width="660" height="560" viewBox="0 0 660 560" fill="none" xmlns="http://www.w3.org/2000/svg">
<g filter="url(#filter0_f_870_2457)">
<path d="M643.19 467.402L475.743 292.253C467.474 283.606 467.332 270.046 475.365 261.21L620.322 101.653C620.558 101.417 620.747 101.133 620.984 100.85L628.685 92.3453C630.811 89.9829 629.252 86.2976 626.228 86.0613H625.945C625.945 86.0613 625.945 86.0613 625.897 86.0613H554.316C547.796 86.0613 541.559 88.9435 537.354 93.9045L410.587 243.162C406.241 248.264 399.909 251.194 393.247 251.194H388.523C375.955 251.194 365.749 240.988 365.749 228.42V25.9616C365.749 19.9138 360.835 15 354.787 15H304.421C298.373 15 293.459 19.9138 293.459 25.9616V228.42C293.459 240.988 283.254 251.194 270.686 251.194H265.961C259.299 251.194 252.92 248.264 248.621 243.162L121.901 93.8573C117.649 88.849 111.459 86.0141 104.939 86.0141H33.3578C33.3578 86.0141 33.3578 86.0141 33.3105 86.0141H32.9798C29.9559 86.392 28.4439 90.0302 30.5701 92.3453L35.8147 98.1569C36.0509 98.4403 36.2399 98.7711 36.4761 99.0073L183.891 261.21C191.923 270.046 191.734 283.606 183.513 292.253L16.0649 467.402C13.8443 469.717 15.4979 473.591 18.7108 473.591H91.8038C92.6543 473.591 93.4575 473.544 94.2607 473.449C97.3318 473.119 100.308 472.174 102.954 470.662C105.033 469.481 106.97 467.969 108.624 466.126L246.967 313.42C251.266 308.648 257.409 305.954 263.834 305.954H270.686C283.254 305.954 293.459 316.16 293.459 328.728V533.644C293.459 539.691 298.373 544.605 304.421 544.605H354.787C360.835 544.605 365.749 539.691 365.749 533.644V328.728C365.749 316.16 375.955 305.954 388.523 305.954H395.374C401.799 305.954 407.942 308.648 412.241 313.42L550.584 466.126C552.238 467.969 554.175 469.481 556.254 470.662C558.9 472.174 561.876 473.166 564.947 473.449C565.751 473.544 566.601 473.591 567.404 473.591H640.497C643.71 473.591 645.364 469.717 643.143 467.402H643.19Z" fill="#2C2C2C"/>
<path d="M293.317 230.307C292.325 241.977 282.592 251.143 270.638 251.143H265.913C259.251 251.143 252.873 248.214 248.573 243.111L121.854 93.8067C117.601 88.7984 111.412 85.9635 104.892 85.9635H33.3105C33.3105 85.9635 33.3105 85.9635 33.2632 85.9635H32.9325C29.9086 86.3415 28.3966 89.9796 30.5228 92.2948L35.7674 98.1063C36.0036 98.3898 36.1926 98.7205 36.4288 98.9567L183.843 261.16C191.875 269.995 191.686 283.556 183.465 292.202L16.0176 467.351C13.7969 469.666 15.4506 473.541 18.6635 473.541H91.7565C92.607 473.541 93.4102 473.493 94.2134 473.399C97.2845 473.068 100.261 472.123 102.907 470.611C104.986 469.43 106.923 467.918 108.577 466.075L246.92 313.369C251.219 308.597 257.361 305.904 263.787 305.904H270.638C282.545 305.904 292.325 315.07 293.317 326.74V230.26V230.307Z" fill="#2C2C2C"/>
</g>
<defs>
<filter id="filter0_f_870_2457" x="0" y="0" width="659.161" height="559.605" filterUnits="userSpaceOnUse" color-interpolation-filters="sRGB">
<feFlood flood-opacity="0" result="BackgroundImageFix"/>
<feBlend mode="normal" in="SourceGraphic" in2="BackgroundImageFix" result="shape"/>
<feGaussianBlur stdDeviation="7.5" result="effect1_foregroundBlur_870_2457"/>
</filter>
</defs>
</svg>
