<svg width="40" height="40" viewBox="0 0 40 40" fill="none" xmlns="http://www.w3.org/2000/svg">
<path d="M35.7444 0H4.25557C1.90528 0 0 1.90528 0 4.25557V35.7444C0 38.0947 1.90528 40 4.25557 40H35.7444C38.0947 40 40 38.0947 40 35.7444V4.25557C40 1.90528 38.0947 0 35.7444 0Z" fill="#D6E977"/>
<path d="M33.2623 27.9279L30.838 25.3921L26.1744 20.5135C25.824 20.1473 25.8181 19.574 26.1584 19.1998L27.9976 17.1755L28.7221 16.3794L32.297 12.4462C32.3069 12.4363 32.3149 12.4244 32.3248 12.4124L32.6513 12.0521C32.7408 11.9526 32.6771 11.7974 32.5458 11.7854H32.5338C32.5338 11.7854 32.5338 11.7854 32.5318 11.7854H29.5024C29.2257 11.7854 28.963 11.9068 28.7838 12.1178L26.9765 14.2496L23.4196 18.4375C23.2365 18.6525 22.9677 18.7779 22.6851 18.7779H22.4841C21.9526 18.7779 21.5207 18.3459 21.5207 17.8145V9.59394V9.24561C21.5207 8.98884 21.3117 8.77985 21.0549 8.77985H18.9212C18.6644 8.77985 18.4554 8.98884 18.4554 9.24561V17.8145C18.4554 18.3459 18.0235 18.7779 17.492 18.7779H17.291C17.0084 18.7779 16.7396 18.6544 16.5565 18.4375L13.9371 15.3523L11.1923 12.1178C11.0131 11.9068 10.7504 11.7854 10.4737 11.7854H7.44426C7.44426 11.7854 7.44426 11.7854 7.44227 11.7854H7.42834C7.30095 11.8013 7.23726 11.9546 7.32683 12.0541L7.54976 12.299C7.55971 12.3109 7.56767 12.3248 7.57762 12.3348L13.8177 19.2018C14.158 19.576 14.1501 20.1493 13.8017 20.5155L9.04657 25.4896L6.71377 27.9299C6.62022 28.0294 6.68988 28.1927 6.82523 28.1927H6.8332H9.92038C9.9562 28.1927 9.99004 28.1907 10.0259 28.1867C10.1572 28.1728 10.2826 28.133 10.3941 28.0673C10.4837 28.0175 10.5653 27.9518 10.6349 27.8762L16.4908 21.4132C16.674 21.2122 16.9327 21.0967 17.2054 21.0967H17.496C18.0275 21.0967 18.4594 21.5287 18.4594 22.0601V30.7345C18.4594 30.9912 18.6684 31.2002 18.9252 31.2002H21.0589C21.3157 31.2002 21.5247 30.9912 21.5247 30.7345V29.2854V22.0601C21.5247 21.5287 21.9566 21.0967 22.4881 21.0967H22.7787C23.0513 21.0967 23.3101 21.2122 23.4932 21.4132L29.3491 27.8762C29.4188 27.9538 29.5004 28.0175 29.59 28.0673C29.7034 28.131 29.8288 28.1728 29.9582 28.1867C29.992 28.1907 30.0279 28.1927 30.0637 28.1927H33.1509H33.1588C33.2962 28.1927 33.3658 28.0294 33.2703 27.9299L33.2623 27.9279Z" fill="url(#paint0_linear_7_91)"/>
<path d="M18.4514 17.8921C18.4096 18.3857 17.9976 18.7739 17.492 18.7739H17.291C17.0084 18.7739 16.7396 18.6505 16.5565 18.4335L13.9371 15.3483L11.1923 12.1138C11.0131 11.9029 10.7504 11.7814 10.4737 11.7814H7.44426C7.44426 11.7814 7.44426 11.7814 7.44227 11.7814H7.42834C7.30095 11.7974 7.23726 11.9506 7.32683 12.0501L7.54976 12.295C7.55971 12.3069 7.56767 12.3208 7.57762 12.3308L13.8177 19.1978C14.158 19.572 14.1501 20.1453 13.8017 20.5115L9.04657 25.4857L6.71377 27.9259C6.62022 28.0255 6.68988 28.1887 6.82523 28.1887H6.8332H9.92038C9.9562 28.1887 9.99004 28.1867 10.0259 28.1827C10.1572 28.1688 10.2826 28.129 10.3941 28.0633C10.4837 28.0135 10.5653 27.9478 10.6349 27.8722L16.4908 21.4092C16.674 21.2082 16.9327 21.0927 17.2054 21.0927H17.496C18.0016 21.0927 18.4136 21.4809 18.4554 21.9745V17.8901L18.4514 17.8921Z" fill="white"/>
<defs>
<linearGradient id="paint0_linear_7_91" x1="19.9861" y1="8.74601" x2="19.9861" y2="31.2221" gradientUnits="userSpaceOnUse">
<stop stop-color="#FF7950"/>
<stop offset="1" stop-color="#FF3000"/>
</linearGradient>
</defs>
</svg>
