<?xml version="1.0" encoding="UTF-8"?><svg id="Layer_1" xmlns="http://www.w3.org/2000/svg" xmlns:xlink="http://www.w3.org/1999/xlink" viewBox="0 0 200 200"><defs><style>.cls-1{fill:url(#linear-gradient);}.cls-2{fill:#ffe8e5;}.cls-3{fill:#ff3000;}</style><linearGradient id="linear-gradient" x1="99.93" y1="43.73" x2="99.93" y2="156.11" gradientUnits="userSpaceOnUse"><stop offset="0" stop-color="#ffb7a6"/><stop offset="1" stop-color="#ff7950"/></linearGradient></defs><rect class="cls-3" x="0" width="200" height="200" rx="21.28" ry="21.28"/><g><path class="cls-1" d="M166.31,139.64l-12.12-12.68-23.32-24.39c-1.75-1.83-1.78-4.7-.08-6.57l9.19-10.12h0s3.62-3.98,3.62-3.98l17.87-19.67c.05-.05,.09-.11,.14-.17l1.63-1.8c.45-.5,.12-1.28-.52-1.33h0s-.06,0-.06,0c0,0,0,0-.01,0h-15.15c-1.38,0-2.7,.61-3.59,1.66l-9.04,10.65-17.79,20.94c-.92,1.08-2.26,1.7-3.67,1.7h-1c-2.66,0-4.82-2.16-4.82-4.82V47.96h0v-1.75c0-1.28-1.04-2.32-2.32-2.32h-10.66c-1.28,0-2.32,1.04-2.32,2.32v42.85c0,2.66-2.16,4.82-4.82,4.82h-1c-1.41,0-2.76-.62-3.67-1.7l-13.1-15.42h0s-13.72-16.18-13.72-16.18c-.9-1.06-2.21-1.66-3.59-1.66h-15.15s0,0-.01,0h-.07c-.64,.08-.96,.85-.51,1.34l1.11,1.23c.05,.06,.09,.13,.14,.18l31.2,34.33c1.7,1.87,1.66,4.74-.08,6.57l-23.77,24.87-11.67,12.2c-.47,.49-.12,1.31,.56,1.31h.04s0,0,0,0h15.43c.18,0,.35-.01,.52-.03,.65-.07,1.28-.27,1.84-.59,.44-.25,.85-.57,1.2-.96l29.28-32.32c.91-1.01,2.21-1.58,3.57-1.58h1.45c2.66,0,4.82,2.16,4.82,4.82v43.37c0,1.28,1.04,2.32,2.32,2.32h10.66c1.28,0,2.32-1.04,2.32-2.32v-7.24h0v-36.13c0-2.66,2.16-4.82,4.82-4.82h1.45c1.36,0,2.66,.57,3.57,1.58l29.28,32.32c.35,.39,.76,.71,1.2,.96,.56,.32,1.19,.53,1.84,.59,.17,.02,.35,.03,.52,.03h15.43s0,0,0,0h.04c.68,0,1.03-.82,.56-1.31Z"/><path class="cls-2" d="M92.26,89.46c-.21,2.47-2.27,4.41-4.8,4.41h-1c-1.41,0-2.76-.62-3.67-1.7l-13.1-15.42h0s-13.72-16.18-13.72-16.18c-.9-1.06-2.21-1.66-3.59-1.66h-15.15s0,0-.01,0h-.07c-.64,.08-.96,.85-.51,1.34l1.11,1.23c.05,.06,.09,.13,.14,.18l31.2,34.33c1.7,1.87,1.66,4.74-.08,6.57l-23.77,24.87-11.67,12.2c-.47,.49-.12,1.31,.56,1.31h.04s0,0,0,0h15.43c.18,0,.35-.01,.52-.03,.65-.07,1.28-.27,1.84-.59,.44-.25,.85-.57,1.2-.96l29.28-32.32c.91-1.01,2.21-1.58,3.57-1.58h1.45c2.52,0,4.59,1.94,4.8,4.41v-20.42Z"/></g></svg>